<svg width="640" height="400" viewBox="0 0 640 400" xmlns="http://www.w3.org/2000/svg" role="img" aria-hidden="true">
  <defs>
    <linearGradient id="portal-bg" x1="0" y1="0" x2="1" y2="1">
      <stop offset="0" stop-color="#0f172a" />
      <stop offset="1" stop-color="#0ea5e9" />
    </linearGradient>
    <linearGradient id="portal-pill" x1="0" y1="0" x2="1" y2="0">
      <stop offset="0" stop-color="#38bdf8" />
      <stop offset="1" stop-color="#0369a1" />
    </linearGradient>
  </defs>
  <rect width="640" height="400" fill="url(#portal-bg)" />
  <rect x="72" y="72" width="496" height="256" rx="28" fill="#020617" opacity="0.96" />
  <rect x="104" y="112" width="432" height="40" rx="20" fill="#020617" stroke="#1e293b" />
  <rect x="120" y="122" width="120" height="22" rx="11" fill="url(#portal-pill)" />
  <circle cx="472" cy="132" r="6" fill="#1e293b" />
  <circle cx="492" cy="132" r="6" fill="#1e293b" />
  <circle cx="512" cy="132" r="6" fill="#1e293b" />
  <rect x="120" y="178" width="160" height="160" rx="16" fill="#020617" />
  <rect x="136" y="194" width="128" height="14" rx="7" fill="#0b1120" />
  <rect x="136" y="216" width="104" height="10" rx="5" fill="#1e293b" />
  <rect x="136" y="236" width="120" height="10" rx="5" fill="#1e293b" />
  <rect x="136" y="256" width="112" height="10" rx="5" fill="#1e293b" />
  <rect x="312" y="178" width="200" height="20" rx="10" fill="#020617" />
  <rect x="312" y="210" width="216" height="10" rx="5" fill="#0b1120" />
  <rect x="312" y="230" width="192" height="10" rx="5" fill="#1e293b" />
  <rect x="312" y="250" width="224" height="10" rx="5" fill="#1e293b" />
  <rect x="312" y="270" width="184" height="10" rx="5" fill="#1e293b" />
  <rect x="312" y="292" width="144" height="10" rx="5" fill="#0369a1" />
</svg>

